<?xml version="1.0" standalone="no"?>
<!DOCTYPE svg PUBLIC "-//W3C//DTD SVG 20010904//EN"
 "http://www.w3.org/TR/2001/REC-SVG-20010904/DTD/svg10.dtd">
<svg version="1.0" xmlns="http://www.w3.org/2000/svg"
 width="900.000000pt" height="900.000000pt" viewBox="0 0 900.000000 900.000000"
 preserveAspectRatio="xMidYMid meet">
<metadata>
Created by potrace 1.11, written by Peter Selinger 2001-2013
</metadata>
<g transform="translate(0.000000,900.000000) scale(0.100000,-0.100000)"
fill="#000000" stroke="none">
<path d="M4213 8490 c-23 -3 -49 -5 -58 -4 -8 1 -15 -1 -15 -6 0 -4 -16 -6
-35 -3 -19 2 -35 0 -35 -5 0 -5 -27 -7 -60 -6 -33 2 -60 -1 -60 -6 0 -4 -10
-6 -22 -2 -11 3 -19 1 -16 -4 4 -5 -15 -9 -40 -9 -26 1 -50 -3 -53 -8 -3 -4
-30 -10 -60 -12 -73 -4 -71 -4 -65 -14 3 -4 -9 -7 -27 -4 -29 3 -50 -3 -101
-29 -13 -7 -16 -6 -11 2 5 8 0 8 -16 -1 -13 -7 -37 -13 -54 -13 -18 -1 -29 -6
-28 -13 2 -7 -4 -10 -12 -7 -8 4 -23 3 -33 -1 -9 -4 -30 -9 -47 -10 -44 -3
-45 -4 -45 -18 0 -8 -13 -12 -37 -12 -45 1 -65 -4 -58 -15 3 -5 -6 -7 -20 -5
-14 1 -29 -3 -33 -9 -4 -7 -16 -12 -27 -12 -11 0 -19 -5 -18 -11 2 -7 -8 -10
-25 -9 -32 4 -54 -3 -47 -14 2 -4 -3 -7 -13 -7 -28 0 -62 -14 -62 -26 0 -6 -3
-7 -7 -4 -3 4 -12 2 -20 -4 -7 -6 -13 -9 -13 -5 0 4 -13 0 -29 -8 -16 -9 -31
-12 -35 -9 -3 4 -6 -1 -6 -10 0 -9 -8 -15 -17 -15 -31 1 -75 -21 -67 -34 4 -6
3 -8 -4 -5 -12 8 -44 -2 -38 -12 3 -4 -7 -7 -22 -7 -16 1 -26 -4 -25 -11 2 -8
-4 -10 -14 -6 -11 4 -14 3 -9 -5 4 -8 2 -10 -7 -6 -8 3 -17 -1 -20 -9 -3 -8
-26 -20 -51 -27 -25 -7 -46 -16 -46 -20 0 -4 -12 -12 -27 -19 -34 -15 -107
-63 -111 -74 -2 -4 -7 -5 -12 -2 -5 3 -16 -2 -24 -11 -9 -8 -16 -12 -16 -7 0
4 -6 1 -13 -8 -7 -9 -16 -18 -22 -20 -5 -2 -9 -8 -7 -12 1 -5 -2 -5 -8 -2 -6
4 -20 -3 -31 -16 -10 -12 -19 -18 -19 -13 0 5 -5 2 -10 -6 -5 -8 -13 -15 -17
-15 -15 -1 -58 -28 -66 -42 -5 -7 -13 -10 -19 -7 -8 5 -9 1 -5 -10 4 -10 3
-15 -3 -11 -6 3 -10 1 -10 -5 0 -6 -4 -8 -10 -5 -5 3 -10 -1 -10 -10 0 -9 -5
-13 -11 -10 -6 4 -19 -2 -30 -14 -11 -12 -27 -21 -35 -21 -8 0 -13 -4 -10 -9
3 -4 -6 -13 -19 -19 -14 -7 -25 -16 -25 -22 0 -6 -4 -9 -9 -5 -5 3 -13 -4 -16
-16 -4 -11 -9 -18 -12 -15 -7 7 -32 -17 -26 -26 2 -4 -4 -5 -13 -1 -10 3 -15
2 -12 -3 7 -11 -17 -35 -26 -27 -3 4 -6 -1 -6 -11 0 -9 -4 -15 -8 -12 -5 3
-16 -3 -25 -12 -8 -9 -23 -23 -32 -30 -8 -7 -12 -18 -9 -24 5 -7 2 -9 -9 -5
-9 3 -21 -1 -29 -11 -11 -13 -11 -15 2 -8 8 4 4 -1 -10 -11 -53 -39 -79 -65
-77 -76 1 -6 -5 -11 -13 -12 -8 -1 -14 -6 -12 -13 1 -7 -4 -11 -10 -10 -7 2
-12 -3 -10 -10 1 -6 -3 -11 -10 -10 -7 2 -17 -7 -23 -19 -5 -13 -13 -23 -18
-23 -5 0 -15 -7 -23 -15 -9 -8 -13 -15 -9 -15 3 0 -9 -13 -27 -30 -18 -16 -29
-30 -24 -30 4 0 -6 -12 -23 -26 -17 -14 -31 -32 -31 -40 0 -9 -4 -13 -9 -10
-4 3 -16 -10 -27 -29 -10 -18 -22 -32 -26 -29 -7 5 -12 -10 -9 -28 0 -5 -6 -8
-14 -8 -9 0 -12 -6 -8 -15 3 -10 0 -15 -8 -13 -9 2 -14 -5 -13 -18 0 -13 -5
-20 -11 -18 -15 6 -68 -63 -60 -76 3 -6 0 -10 -8 -10 -7 0 -22 -18 -33 -39
-10 -22 -22 -37 -26 -35 -7 5 -12 -18 -9 -38 0 -5 -4 -8 -10 -8 -5 0 -8 -4 -5
-9 3 -5 0 -11 -8 -14 -7 -3 -28 -26 -45 -52 -17 -25 -26 -43 -19 -39 10 6 11
5 1 -8 -7 -8 -9 -19 -5 -23 4 -5 2 -5 -4 -2 -12 7 -44 -33 -44 -53 0 -5 -9
-19 -20 -30 -12 -12 -18 -25 -15 -30 4 -6 1 -10 -5 -10 -6 0 -8 -4 -5 -10 3
-5 2 -10 -2 -10 -5 0 -15 -16 -22 -35 -7 -19 -17 -35 -22 -35 -6 0 -8 -4 -5
-9 4 -5 1 -11 -4 -13 -6 -2 -12 -13 -13 -26 0 -12 -4 -22 -8 -22 -8 0 -33 -60
-30 -72 0 -5 -3 -8 -8 -8 -8 0 -24 -37 -22 -52 1 -5 -4 -8 -10 -8 -5 0 -8 -4
-5 -9 3 -4 -1 -17 -9 -27 -8 -10 -15 -25 -15 -32 0 -13 -20 -64 -39 -102 -5
-8 -7 -23 -5 -33 1 -9 -1 -15 -6 -12 -5 3 -14 -12 -21 -32 -7 -21 -19 -54 -27
-73 -18 -41 -19 -43 -21 -71 0 -11 -5 -18 -9 -15 -4 2 -9 -5 -9 -17 -3 -45
-10 -76 -21 -90 -7 -8 -9 -17 -5 -20 3 -4 0 -13 -7 -22 -7 -8 -9 -15 -5 -15 4
0 1 -8 -6 -17 -12 -15 -12 -16 1 -8 13 8 13 7 0 -10 -8 -10 -14 -20 -12 -22 1
-1 2 -4 1 -5 -2 -7 -10 -55 -11 -70 -1 -10 -5 -18 -9 -18 -3 0 -5 -11 -4 -25
2 -14 -1 -25 -7 -25 -6 0 -8 -6 -5 -14 3 -8 0 -38 -7 -68 -7 -30 -10 -60 -8
-67 3 -8 1 -11 -4 -8 -5 3 -9 -7 -9 -21 -1 -15 -4 -47 -8 -72 -4 -25 -9 -74
-12 -110 -3 -36 -8 -85 -11 -110 -10 -76 -12 -250 -3 -250 5 0 9 3 10 8 7 49
20 210 22 270 1 17 4 32 7 32 4 0 5 12 5 28 -1 15 4 61 11 102 15 82 25 139
28 155 1 6 4 15 7 20 3 6 4 20 3 33 0 12 2 22 5 22 4 0 8 10 8 23 3 44 7 67
15 67 3 0 7 8 7 18 0 23 5 44 15 61 6 10 5 12 -3 7 -6 -4 -3 8 8 27 11 19 18
37 15 39 -2 3 2 24 10 46 9 23 13 42 10 42 -2 0 1 10 8 23 7 12 13 25 14 30 1
4 3 9 4 12 3 5 3 5 14 55 5 19 13 46 19 60 6 14 11 27 11 30 1 5 52 151 64
180 3 8 4 18 4 23 -1 4 3 7 9 7 5 0 8 4 4 9 -3 5 -1 12 4 15 12 8 54 95 54
113 0 7 4 13 8 13 6 0 36 55 39 72 0 4 16 35 35 69 19 33 32 66 28 72 -3 5 -1
7 4 4 10 -7 28 20 25 36 -1 4 3 7 8 7 6 0 10 7 10 15 0 8 5 15 10 15 6 0 10 7
10 16 0 9 10 25 22 36 13 11 16 16 8 12 -12 -7 -13 -5 -3 8 7 8 10 18 6 22 -4
4 1 4 10 0 10 -3 17 -3 16 2 -3 12 34 74 44 74 5 0 5 5 2 10 -3 6 -1 10 5 10
6 0 8 5 5 10 -3 6 1 10 9 10 9 0 13 7 11 20 -2 12 2 20 10 20 8 0 17 5 21 12
5 7 3 8 -5 3 -10 -5 -9 -2 0 13 7 12 18 20 23 19 6 -1 10 6 10 15 -1 10 3 16
10 15 6 -1 10 4 9 10 -2 7 9 20 23 29 14 9 23 23 20 30 -3 7 3 18 12 26 16 12
16 11 2 -7 -14 -20 -14 -20 7 -2 13 11 19 25 16 35 -4 8 -2 13 3 10 5 -3 15 0
22 8 7 8 10 14 6 14 -3 0 4 9 17 21 13 11 18 17 10 13 -9 -5 -12 -3 -7 4 4 7
13 12 20 12 8 0 16 9 19 21 3 12 10 18 16 14 6 -3 11 0 11 7 0 8 14 26 30 40
17 15 32 31 33 35 1 4 5 7 9 5 5 -1 8 5 8 13 0 8 5 15 10 15 6 0 15 11 20 25
6 16 17 25 30 25 12 0 18 5 15 10 -3 6 -1 10 5 10 6 0 8 5 5 10 -3 6 -1 10 4
10 19 0 122 103 117 116 -3 8 1 11 10 7 7 -3 14 0 14 6 0 6 6 10 13 9 6 -2 11
3 9 10 -1 6 5 12 14 12 9 0 12 5 8 12 -4 6 -3 8 3 5 13 -8 55 27 45 37 -4 4 0
6 8 4 8 -1 14 2 13 9 -2 7 3 10 11 7 9 -3 17 3 21 15 3 12 11 19 16 16 5 -4 9
1 9 9 0 9 3 15 8 15 23 -4 34 3 28 17 -4 12 -2 15 9 10 8 -3 15 0 15 6 0 6 3
9 6 5 8 -8 33 16 27 26 -2 4 -1 7 4 6 21 -4 33 2 33 16 0 9 6 12 15 9 8 -4 15
-2 15 3 0 6 23 24 51 41 31 20 48 36 43 44 -4 6 -3 8 3 5 6 -4 22 3 37 14 14
11 26 17 26 13 0 -4 7 1 16 12 8 10 13 12 9 4 -5 -12 -4 -12 7 1 7 9 18 18 23
20 6 2 9 7 7 12 -1 4 1 6 5 6 21 -3 33 2 28 12 -4 6 -1 9 6 8 20 -3 50 12 43
22 -3 5 3 6 12 2 12 -4 15 -3 10 5 -5 8 -2 10 8 6 9 -3 16 -2 16 3 0 5 16 17
36 26 19 10 33 21 29 26 -3 5 3 8 12 7 10 -2 28 4 41 12 12 8 22 11 22 7 0 -3
14 3 30 15 17 12 38 23 48 25 9 1 16 8 15 13 -2 6 4 9 12 6 8 -4 15 -2 15 4 0
6 8 8 19 5 12 -3 24 3 35 18 9 13 16 20 16 16 0 -4 13 -1 30 8 16 8 33 16 37
18 5 1 7 5 6 9 -2 4 10 6 25 5 16 -1 26 3 25 10 -1 6 5 10 15 8 9 -1 19 1 22
6 3 4 17 9 32 11 15 2 31 8 35 13 5 4 2 5 -6 0 -9 -5 -12 -4 -7 3 3 6 16 9 27
7 25 -5 51 4 43 16 -3 5 2 6 10 3 9 -3 16 -2 16 4 0 5 11 8 25 7 14 -2 25 1
25 6 0 6 4 8 9 5 5 -4 11 -1 13 5 2 5 18 11 35 11 19 1 30 5 26 11 -3 6 -1 7
6 3 6 -4 23 0 38 9 14 9 22 12 19 6 -5 -7 -1 -9 8 -5 9 3 13 11 9 17 -3 6 -1
7 6 3 6 -4 19 -2 28 6 14 11 16 11 8 -2 -6 -12 -5 -12 5 -3 7 6 19 9 28 6 9
-4 13 -2 9 4 -4 6 4 9 21 7 14 -1 30 2 34 8 3 7 24 12 47 12 22 0 38 3 35 7
-2 4 6 5 18 1 14 -3 19 -1 14 6 -4 7 1 9 15 7 13 -3 29 1 38 8 12 10 13 9 6
-2 -6 -10 -4 -12 5 -6 18 11 89 26 118 26 13 -1 21 3 18 7 -3 4 8 7 24 6 16
-1 31 3 33 10 3 7 31 11 78 10 41 -1 78 1 83 4 6 3 30 6 55 6 26 1 51 3 56 6
6 3 45 5 88 5 59 0 77 3 77 13 0 9 6 12 16 8 9 -3 22 -6 30 -6 9 0 12 -5 8
-12 -5 -7 -3 -8 6 -3 19 12 159 12 164 0 2 -5 5 -3 5 6 1 12 8 15 26 11 14 -2
25 -8 25 -11 0 -4 58 -7 129 -7 71 1 129 -3 128 -8 -1 -5 32 -10 73 -11 41 -2
86 -7 100 -12 14 -5 39 -9 57 -8 17 0 29 -3 26 -7 -2 -5 12 -7 31 -5 20 2 36
0 36 -5 0 -5 13 -7 30 -4 16 2 32 0 36 -5 3 -5 10 -7 15 -4 5 4 9 2 9 -4 0 -5
9 -8 19 -6 10 2 37 -3 59 -10 22 -8 50 -12 61 -10 12 2 19 0 16 -6 -4 -5 -3
-9 2 -10 33 -3 69 -12 83 -19 9 -5 31 -7 49 -5 17 2 29 0 26 -4 -4 -7 15 -21
35 -25 3 -1 11 -5 18 -9 6 -5 17 -5 23 -1 6 3 14 2 18 -5 4 -6 19 -12 34 -13
15 -1 27 -6 27 -11 0 -5 7 -7 15 -4 8 4 17 2 20 -4 4 -5 10 -7 15 -4 5 3 15
-1 23 -10 8 -8 25 -12 36 -10 13 2 24 -2 28 -11 3 -8 12 -13 20 -10 7 3 16 -1
19 -8 3 -8 16 -13 29 -11 16 1 26 -4 30 -15 3 -9 11 -17 18 -18 30 -2 61 -13
95 -34 20 -12 37 -21 37 -20 0 2 13 -1 28 -7 16 -6 33 -11 38 -11 6 0 8 -4 4
-9 -3 -6 4 -8 15 -6 11 2 18 0 16 -4 -4 -6 51 -40 77 -47 4 -1 10 -3 15 -4 4
-1 11 -2 15 -1 5 1 6 -3 2 -8 -3 -6 4 -15 16 -21 17 -10 20 -9 14 2 -3 7 1 4
9 -6 9 -11 19 -17 22 -13 9 8 33 -16 26 -27 -3 -5 0 -6 6 -2 6 3 17 0 24 -8 8
-7 24 -17 36 -20 12 -4 22 -12 22 -17 0 -6 5 -7 10 -4 6 3 10 1 10 -4 0 -6 7
-11 15 -11 8 0 28 -13 43 -30 16 -16 43 -33 61 -36 22 -5 30 -11 27 -20 -5
-12 6 -19 19 -11 2 1 11 -7 19 -18 9 -11 16 -16 16 -12 0 8 14 -2 55 -41 14
-13 25 -21 25 -18 0 3 11 -6 25 -19 13 -14 29 -25 35 -25 5 0 10 -7 10 -15 0
-9 6 -15 13 -13 6 1 25 -10 40 -26 16 -16 34 -25 43 -22 8 3 13 2 10 -2 -7
-12 16 -38 52 -56 17 -9 32 -19 32 -22 0 -3 -5 -2 -11 1 -6 4 -5 -2 2 -13 7
-12 15 -20 18 -20 20 2 31 -3 26 -12 -3 -5 -2 -10 2 -10 5 0 18 -7 29 -16 10
-8 12 -12 4 -8 -13 7 -13 6 -1 -10 8 -9 20 -15 28 -12 8 3 11 1 8 -4 -3 -6 1
-13 9 -16 9 -3 16 -12 16 -19 0 -8 9 -16 20 -20 11 -3 19 -9 17 -13 -1 -4 2
-8 8 -9 5 -1 12 -10 16 -20 3 -10 11 -18 18 -18 6 0 10 -2 9 -5 -3 -11 24 -50
31 -45 9 5 26 -23 23 -37 -1 -5 7 -8 18 -8 11 0 19 -3 19 -7 -3 -20 2 -34 11
-28 6 3 10 1 10 -5 0 -6 5 -8 10 -5 6 3 10 1 10 -6 0 -7 7 -19 15 -28 8 -9 26
-28 40 -43 14 -16 22 -28 18 -28 -4 0 3 -10 17 -21 14 -11 19 -17 11 -13 -9 5
-12 3 -7 -4 4 -7 14 -12 22 -12 8 0 13 -3 12 -7 -3 -15 14 -43 23 -37 5 3 9 2
8 -3 -4 -21 2 -44 10 -39 5 3 12 -1 15 -10 3 -9 11 -12 18 -8 8 5 9 2 5 -9 -4
-10 -2 -17 4 -17 6 0 9 -7 5 -15 -3 -8 -1 -15 5 -15 17 0 36 -24 31 -39 -3 -8
0 -11 6 -8 9 6 26 -27 23 -45 -1 -5 7 -8 16 -8 9 0 14 -3 10 -6 -3 -4 1 -13 9
-21 8 -8 12 -18 9 -23 -3 -5 4 -11 15 -15 11 -3 20 -13 20 -21 0 -8 5 -14 11
-14 5 0 8 -4 4 -9 -3 -5 2 -17 11 -25 8 -9 13 -16 9 -16 -3 0 0 -10 7 -22 7
-13 12 -26 13 -30 0 -3 4 -10 9 -15 5 -5 6 -2 1 7 -6 11 -5 12 3 5 6 -6 13
-21 15 -34 2 -13 11 -29 20 -36 9 -7 14 -15 10 -18 -3 -4 -1 -7 5 -7 6 0 9 -6
6 -14 -3 -7 2 -16 11 -20 9 -3 14 -10 10 -16 -3 -5 0 -20 7 -32 7 -13 11 -26
10 -30 -1 -5 3 -8 9 -8 5 0 7 -4 4 -10 -3 -5 -1 -10 5 -10 6 0 8 -5 5 -10 -4
-6 3 -18 15 -28 11 -9 22 -27 23 -39 1 -13 4 -23 8 -23 8 0 22 -40 19 -59 -1
-7 4 -10 9 -6 11 6 26 -42 25 -77 -1 -10 5 -18 13 -18 8 0 11 -4 8 -10 -3 -5
-1 -10 5 -10 6 0 8 -4 5 -10 -3 -5 0 -24 8 -42 28 -63 47 -118 40 -118 -3 0 2
-9 11 -19 10 -11 15 -25 11 -30 -3 -6 -1 -11 5 -11 7 0 10 -7 6 -15 -3 -8 -1
-15 4 -15 5 0 7 -9 5 -20 -2 -11 0 -22 5 -25 5 -3 7 -14 5 -25 -2 -11 1 -22 6
-25 5 -4 7 -11 3 -16 -3 -5 -2 -15 3 -22 5 -7 10 -23 11 -37 1 -14 6 -26 12
-28 5 -2 7 -8 4 -13 -3 -6 0 -17 8 -26 11 -14 11 -16 -1 -8 -10 6 -12 4 -6 -5
4 -7 9 -23 11 -34 3 -24 12 -73 17 -96 1 -8 5 -19 8 -25 4 -5 5 -18 4 -27 -2
-10 1 -18 6 -18 6 0 8 -4 4 -9 -3 -5 -1 -12 3 -15 5 -3 8 -20 7 -38 -2 -18 0
-37 3 -43 7 -12 12 -57 15 -147 1 -38 5 -68 8 -68 3 0 5 -27 5 -60 -1 -33 1
-60 4 -60 3 0 4 -91 3 -202 -2 -204 -9 -423 -13 -423 -1 0 -3 -13 -5 -30 -1
-16 -3 -30 -5 -30 -1 0 -3 -11 -4 -25 0 -14 -5 -31 -10 -39 -7 -11 -6 -12 5
-6 11 7 12 6 3 -6 -6 -8 -10 -26 -9 -41 1 -16 -1 -28 -5 -28 -4 0 -6 -10 -5
-22 1 -13 0 -27 -4 -33 -6 -11 -10 -42 -14 -102 -1 -24 -5 -43 -8 -43 -3 0 -5
-10 -4 -23 1 -12 -5 -35 -13 -52 -15 -28 -20 -51 -24 -102 -1 -13 -6 -23 -12
-23 -5 0 -7 -3 -3 -6 3 -4 0 -21 -7 -38 -7 -17 -12 -39 -10 -48 1 -10 -2 -20
-6 -23 -5 -3 -7 -14 -5 -25 2 -11 0 -20 -4 -20 -8 0 -36 -79 -33 -92 1 -5 -2
-8 -6 -8 -5 0 -8 -13 -7 -30 1 -17 -4 -31 -12 -34 -8 -3 -12 -10 -8 -15 3 -5
1 -12 -5 -16 -6 -4 -8 -11 -5 -16 4 -5 1 -9 -5 -9 -6 0 -8 -4 -5 -10 3 -5 1
-10 -5 -10 -6 0 -8 -4 -5 -10 3 -5 2 -10 -2 -10 -5 0 -10 -12 -11 -27 -1 -15
-7 -30 -13 -33 -6 -4 -12 -16 -14 -26 -2 -10 -4 -20 -5 -21 -2 -2 -3 -6 -4
-10 -1 -5 -5 -14 -9 -20 -5 -7 -5 -13 -1 -13 4 0 0 -8 -8 -17 -13 -15 -28 -44
-33 -63 -4 -15 -50 -98 -62 -112 -8 -9 -12 -21 -9 -27 4 -5 0 -13 -8 -18 -8
-4 -15 -12 -16 -18 -6 -27 -21 -55 -30 -55 -6 0 -9 -4 -6 -9 3 -4 -3 -19 -14
-31 -11 -13 -20 -29 -20 -37 0 -8 -4 -12 -9 -8 -6 3 -8 -4 -6 -15 2 -11 -1
-20 -7 -20 -6 0 -8 -3 -5 -6 3 -4 -5 -15 -18 -26 -14 -11 -23 -23 -20 -28 3
-4 -2 -11 -11 -14 -8 -3 -12 -10 -9 -16 3 -5 1 -10 -5 -10 -6 0 -8 -4 -5 -10
3 -5 1 -10 -5 -10 -6 0 -8 -4 -5 -10 3 -5 1 -10 -5 -10 -6 0 -14 -8 -17 -17
-4 -10 -13 -24 -20 -31 -7 -8 -10 -18 -7 -24 4 -6 3 -9 -2 -6 -9 6 -28 -9 -33
-27 -10 -29 -14 -35 -27 -35 -8 0 -13 -3 -13 -7 3 -21 -2 -44 -9 -39 -11 7
-44 -32 -37 -43 3 -5 -2 -11 -10 -15 -8 -3 -20 -17 -27 -31 -6 -14 -18 -25
-25 -25 -8 0 -12 -4 -9 -9 3 -5 -1 -14 -9 -21 -8 -7 -12 -16 -9 -21 3 -5 0 -8
-8 -7 -7 2 -12 -5 -12 -15 1 -10 0 -16 -3 -14 -8 9 -65 -51 -58 -62 3 -6 3
-11 -2 -10 -26 4 -41 -3 -39 -18 3 -20 -29 -53 -51 -53 -7 0 -13 -5 -13 -11 0
-16 -72 -89 -82 -83 -7 5 -12 -10 -9 -29 0 -4 -5 -6 -11 -5 -7 2 -12 -3 -10
-10 1 -6 -2 -11 -7 -10 -5 2 -17 -6 -26 -17 -9 -11 -13 -13 -9 -5 4 9 -2 7
-13 -5 -11 -11 -19 -23 -16 -28 2 -4 -1 -7 -7 -7 -14 0 -76 -60 -72 -71 1 -5
-5 -9 -14 -9 -8 0 -13 -4 -9 -9 3 -6 -4 -8 -15 -6 -13 2 -20 -1 -20 -11 0 -8
-7 -14 -16 -14 -8 0 -12 -4 -9 -10 3 -5 -1 -10 -9 -10 -9 0 -16 -4 -16 -10 0
-5 -5 -10 -10 -10 -14 0 -70 -55 -70 -68 0 -6 -7 -9 -15 -6 -8 3 -26 -6 -41
-21 -15 -15 -40 -32 -56 -37 -16 -6 -33 -19 -39 -29 -5 -10 -16 -19 -24 -19
-8 0 -15 -4 -15 -10 0 -5 -7 -10 -15 -10 -8 0 -15 -4 -15 -8 0 -4 -13 -16 -30
-25 -16 -10 -30 -15 -30 -12 0 3 -6 0 -14 -7 -8 -7 -12 -16 -9 -20 2 -5 -7 -8
-21 -8 -13 0 -26 -4 -28 -8 -6 -15 -66 -52 -84 -52 -9 0 -14 -3 -11 -7 10 -9
-43 -34 -56 -26 -7 4 -8 0 -3 -13 4 -10 4 -15 1 -12 -4 4 -45 -13 -92 -38 -46
-24 -91 -44 -99 -44 -9 0 -12 -4 -9 -10 3 -5 0 -7 -8 -4 -8 3 -20 -2 -27 -11
-7 -8 -22 -15 -33 -15 -11 0 -28 -7 -37 -15 -10 -9 -30 -18 -46 -21 -16 -3
-31 -10 -35 -15 -3 -6 -9 -10 -13 -10 -3 1 -7 1 -8 0 -2 0 -11 -2 -21 -4 -10
-2 -25 -9 -33 -16 -8 -7 -26 -13 -39 -14 -13 0 -34 -9 -46 -20 -12 -11 -19
-14 -15 -7 7 12 4 12 -15 1 -13 -7 -32 -13 -42 -14 -10 0 -21 -5 -25 -10 -4
-6 -27 -11 -51 -13 -25 -1 -53 -9 -63 -19 -10 -9 -33 -18 -51 -20 -54 -5 -109
-22 -103 -32 3 -4 -8 -6 -22 -5 -34 1 -63 -6 -58 -15 3 -4 -14 -6 -37 -5 -23
1 -47 -2 -54 -8 -6 -5 -27 -10 -47 -11 -20 -1 -36 -5 -36 -10 0 -4 -3 -6 -7
-6 -5 1 -10 1 -13 0 -3 -1 -41 -4 -85 -6 -44 -2 -91 -7 -105 -10 -28 -6 -93
-14 -161 -19 -25 -1 -51 -6 -57 -10 -6 -3 -12 -2 -14 4 -2 7 -24 8 -63 3 -68
-9 -352 -7 -495 3 -52 3 -120 7 -152 8 -31 0 -54 4 -52 7 4 7 -10 8 -108 12
-27 1 -48 5 -48 8 0 7 -11 9 -62 12 -21 1 -38 5 -38 8 0 3 -6 6 -12 7 -64 8
-87 12 -113 20 -16 5 -40 8 -52 7 -12 -1 -20 2 -17 7 5 7 -13 12 -43 11 -7 -1
-13 2 -13 6 0 6 -30 12 -77 15 -11 0 -19 4 -16 8 2 5 -4 9 -14 10 -32 2 -38 4
-58 14 -11 6 -32 10 -47 9 -15 -1 -26 2 -25 8 1 5 -5 11 -13 13 -8 1 -28 6
-45 9 -16 3 -38 13 -47 22 -10 8 -24 13 -32 10 -8 -3 -16 -1 -18 4 -2 5 -13
11 -26 12 -12 0 -22 5 -22 10 0 4 -4 5 -10 2 -5 -3 -10 -1 -10 5 0 6 -5 8 -11
4 -6 -3 -14 -2 -18 5 -4 6 -19 12 -33 13 -18 2 -24 7 -20 17 4 11 0 13 -16 9
-12 -4 -20 -2 -17 3 7 11 -40 23 -55 14 -6 -3 -9 -1 -8 7 2 8 -6 13 -19 12
-12 0 -21 4 -20 10 1 6 -5 11 -13 11 -8 0 -21 6 -28 13 -7 6 -22 12 -33 12
-11 0 -17 5 -14 10 4 7 -3 9 -19 6 -19 -3 -23 -1 -19 10 3 8 2 14 -3 12 -5 -1
-19 3 -32 10 -12 7 -28 10 -34 6 -6 -4 -8 -3 -5 3 4 6 -5 19 -19 28 -18 12
-24 13 -19 4 3 -8 0 -6 -8 3 -8 10 -17 15 -20 11 -4 -3 -7 -1 -7 6 0 8 -7 11
-15 7 -8 -3 -14 0 -12 7 1 7 -6 11 -17 9 -10 -2 -16 1 -13 5 3 5 -7 17 -24 27
-16 9 -29 14 -29 11 0 -3 -10 4 -22 15 -12 11 -28 18 -36 15 -7 -2 -10 0 -7 5
3 6 -3 10 -15 10 -12 0 -18 5 -15 10 3 6 -2 13 -12 17 -10 4 -22 12 -28 19 -5
7 -16 14 -23 16 -8 2 -27 16 -44 31 -17 15 -33 26 -35 23 -2 -2 -14 6 -27 18
-36 34 -66 56 -75 56 -5 0 -11 7 -15 15 -3 8 -10 15 -16 15 -11 0 -25 10 -65
47 -13 13 -30 23 -36 23 -7 0 -10 3 -6 6 3 4 -15 23 -41 44 -65 52 -115 100
-105 100 4 0 1 4 -7 9 -15 10 -30 6 -30 -8 0 -7 77 -86 164 -168 18 -18 36
-29 40 -26 3 4 6 -1 6 -10 0 -8 9 -19 20 -22 11 -4 17 -11 14 -17 -5 -8 -1 -9
12 -4 10 4 15 4 12 0 -8 -7 -6 -9 78 -81 34 -29 66 -53 72 -53 5 0 12 -7 16
-15 3 -8 10 -15 16 -15 5 0 19 -9 30 -20 12 -12 26 -18 32 -14 7 4 8 3 4 -4
-4 -7 -1 -12 8 -12 9 0 16 -4 16 -10 0 -5 5 -10 10 -10 11 0 24 -9 59 -41 9
-8 23 -13 29 -11 7 2 11 -2 10 -10 -2 -7 3 -12 9 -10 7 1 13 -2 13 -6 0 -13
59 -44 70 -37 6 4 9 1 8 -7 -2 -8 6 -13 18 -12 14 0 20 -4 17 -13 -3 -7 2 -13
11 -13 9 0 16 -5 16 -11 0 -6 7 -8 15 -5 9 3 18 -1 21 -9 3 -8 12 -11 21 -8
11 4 14 2 9 -5 -5 -8 0 -12 12 -12 11 0 22 -7 26 -15 3 -8 9 -15 13 -14 17 3
52 -14 47 -22 -3 -5 3 -9 13 -9 11 0 24 -5 31 -12 7 -7 12 -8 12 -3 0 4 9 0
19 -9 11 -10 25 -19 33 -20 22 -5 68 -29 68 -37 0 -4 15 -6 34 -5 19 1 33 0
31 -3 -4 -4 27 -37 32 -34 1 1 19 -5 38 -13 20 -8 41 -12 47 -8 7 4 8 3 4 -4
-4 -7 -2 -13 3 -13 26 -3 30 -4 37 -11 4 -5 18 -8 31 -8 13 0 22 -4 19 -9 -6
-8 81 -38 97 -33 5 1 6 -2 2 -8 -3 -5 2 -11 12 -12 31 -2 36 -4 93 -22 30 -10
60 -22 65 -27 6 -4 20 -8 30 -9 54 -1 73 -5 68 -14 -4 -5 1 -7 10 -3 10 4 17
2 17 -4 0 -6 6 -9 14 -6 7 3 17 2 22 -3 5 -5 27 -10 49 -11 22 -1 48 -6 58
-11 25 -13 76 -24 145 -32 23 -3 48 -8 55 -13 6 -4 47 -8 90 -9 43 -1 83 -7
90 -12 7 -5 28 -9 49 -8 20 0 34 -2 32 -6 -3 -4 12 -7 33 -7 21 0 61 -3 88 -6
63 -9 507 -15 519 -7 5 3 28 7 50 9 23 2 57 5 76 7 19 2 61 6 92 9 32 3 62 8
67 12 6 3 29 8 51 10 22 2 45 7 51 11 6 3 47 8 92 10 45 3 84 9 88 15 3 6 26
13 50 15 24 3 53 7 64 9 11 2 28 4 38 4 10 1 16 5 13 10 -3 4 2 8 12 8 45 0
63 4 58 12 -3 5 0 9 7 8 39 -1 67 5 79 17 8 7 38 17 66 21 29 4 52 11 52 17 0
6 7 7 16 4 10 -4 25 1 35 10 11 10 19 14 19 10 0 -5 16 1 36 13 19 12 32 15
28 9 -5 -8 0 -7 11 2 10 8 28 15 39 15 12 1 20 7 18 14 -2 9 3 11 13 7 9 -3
26 1 38 9 12 8 29 15 38 15 9 0 24 9 34 20 10 11 31 20 47 20 15 0 28 5 28 11
0 6 7 8 15 5 9 -3 18 1 21 9 4 8 10 15 15 15 5 0 26 7 47 17 20 9 41 17 45 17
4 1 12 8 17 16 5 8 10 11 10 7 0 -4 10 -2 23 5 22 12 28 14 48 17 5 0 7 6 3
13 -5 8 -2 9 9 5 11 -4 20 1 27 14 6 11 15 17 19 15 4 -3 19 5 32 17 13 12 24
20 24 19 0 -8 62 23 83 42 13 12 25 20 28 19 11 -7 24 -2 19 7 -3 6 1 10 9 10
8 0 29 14 46 30 17 17 35 28 39 25 5 -2 14 2 21 10 7 8 18 15 24 15 6 0 18 9
26 20 8 11 23 20 33 20 10 0 15 5 12 10 -3 6 1 10 10 10 9 0 13 5 10 10 -3 6
1 10 10 10 9 0 13 4 10 10 -3 6 1 7 9 4 9 -4 18 1 22 10 3 9 12 16 19 16 7 0
23 13 36 29 13 16 27 27 31 25 4 -3 8 0 8 6 0 6 4 9 9 5 5 -3 12 4 16 15 3 11
11 20 16 20 6 0 7 5 4 10 -4 6 5 10 20 10 18 0 29 6 32 20 3 11 12 20 20 20 8
0 11 5 8 10 -3 6 0 10 7 10 15 0 54 41 50 53 -1 4 4 7 11 5 7 -2 12 0 12 3 0
9 29 35 49 42 11 4 16 13 12 22 -3 10 1 15 13 15 10 0 26 10 37 22 13 14 14
19 4 14 -8 -4 -6 0 5 9 11 9 19 21 17 26 -1 5 1 8 5 8 23 -4 32 3 26 18 -5 12
-3 14 7 8 10 -6 12 -4 7 9 -6 14 -3 16 13 11 11 -4 21 -2 21 4 1 6 2 17 3 24
1 6 7 11 14 10 6 -2 20 9 29 25 10 15 25 33 33 40 13 12 13 13 0 6 -9 -4 -7 2
5 13 11 11 24 18 29 15 5 -3 7 2 3 11 -4 12 -2 14 10 10 11 -4 14 -2 9 5 -4 7
-4 12 1 12 4 0 21 17 37 37 16 20 23 33 15 28 -8 -5 -2 4 14 20 15 15 27 32
27 37 0 5 5 6 12 2 6 -4 8 -3 4 4 -3 6 -1 14 5 17 5 4 8 13 5 21 -3 8 0 11 10
7 8 -3 14 1 14 9 0 7 9 19 20 26 12 7 19 16 16 21 -3 4 4 13 14 21 10 8 17 17
14 22 -3 4 0 8 6 8 6 0 8 5 5 10 -3 6 1 10 9 10 10 0 13 7 11 20 -2 11 -1 19
3 17 4 -3 18 9 32 26 14 17 18 28 10 23 -8 -4 -7 -1 3 7 9 8 17 17 17 22 0 4
9 18 20 32 11 14 17 29 14 34 -3 5 0 9 6 9 6 0 9 4 6 9 -3 5 1 12 10 15 9 4
14 9 11 12 -3 4 1 13 9 21 8 8 12 19 9 24 -4 5 1 9 10 9 9 0 13 5 10 10 -3 6
-2 10 3 10 5 0 9 7 10 15 1 8 3 22 4 29 1 8 6 14 12 13 6 -1 10 4 8 11 -1 6 3
12 9 12 5 0 7 5 4 10 -3 6 -1 10 5 10 6 0 8 5 5 10 -3 5 -1 10 5 10 6 0 9 4 6
9 -3 5 1 12 10 15 8 3 14 11 12 18 -3 17 24 78 36 78 4 0 6 7 2 15 -3 8 0 15
6 15 6 0 8 3 5 7 -4 3 0 15 10 25 9 10 12 18 7 18 -5 0 -4 4 3 8 6 4 13 22 16
41 3 19 10 37 15 40 5 3 15 24 22 46 7 22 17 45 22 52 5 7 6 18 2 24 -5 8 -3
9 6 4 10 -6 12 -4 7 7 -3 9 5 37 18 64 13 27 21 52 19 56 -2 3 0 9 6 13 6 4 8
11 5 16 -4 5 -1 9 5 9 6 0 8 5 5 10 -4 6 -2 16 3 23 5 7 8 20 7 30 -2 9 1 17
5 17 5 0 7 9 5 20 -2 11 1 19 8 17 6 -1 11 11 11 31 0 17 4 32 9 32 4 0 5 5 2
10 -3 6 -2 10 4 10 5 0 8 9 6 21 -2 11 1 32 7 47 6 15 12 35 13 45 2 9 4 19 5
22 1 3 3 13 4 23 1 9 5 23 9 30 5 6 5 17 2 22 -4 6 -2 17 5 24 11 14 19 56 24
126 1 20 6 41 10 48 8 13 11 38 21 157 4 55 13 135 21 205 9 76 10 520 0 520
-4 0 -5 7 -2 16 3 9 3 21 -1 27 -8 13 -11 45 -17 152 -2 39 -5 70 -6 70 -1 0
-3 12 -5 26 -2 15 -6 44 -10 65 -4 22 -9 48 -10 59 -2 11 -4 20 -5 20 -1 0 -3
11 -5 25 -2 14 -6 36 -9 50 -7 30 -18 101 -19 117 0 7 -4 10 -9 7 -4 -3 -9 3
-10 13 -4 48 -19 106 -32 122 -9 12 -8 13 4 6 12 -7 13 -6 3 7 -7 8 -10 18 -6
21 3 4 2 7 -4 7 -5 0 -9 10 -8 23 1 12 -3 29 -10 37 -7 8 -13 22 -13 30 -1 17
-6 36 -16 65 -10 25 -14 39 -13 45 0 3 -6 16 -13 30 -8 14 -15 27 -15 30 -8
51 -18 80 -27 80 -6 0 -8 3 -5 6 3 4 1 16 -5 28 -7 11 -13 24 -14 29 -1 4 -3
10 -4 15 -1 4 -2 11 -1 16 1 5 -3 12 -9 16 -6 4 -12 13 -14 21 -6 34 -18 58
-32 63 -8 3 -12 11 -9 16 4 6 1 18 -7 27 -11 14 -11 16 1 9 8 -6 7 0 -4 18
-10 14 -15 26 -11 26 3 0 -3 9 -15 21 -11 11 -18 27 -15 34 2 7 -2 16 -10 19
-8 3 -14 12 -14 21 0 8 -5 15 -11 15 -5 0 -7 5 -4 10 3 6 -4 25 -17 42 -12 18
-21 41 -20 51 2 11 -1 16 -6 13 -5 -3 -12 4 -15 15 -4 13 -10 18 -18 13 -8 -4
-10 -3 -5 4 4 7 3 12 -3 12 -5 0 -8 8 -6 19 2 10 -6 29 -18 42 -12 14 -23 31
-25 39 -2 8 -8 17 -13 18 -5 2 -9 13 -9 23 0 11 -4 17 -10 14 -5 -3 -10 -1
-10 5 0 6 -3 9 -7 7 -5 -3 -9 6 -9 19 -3 40 -12 54 -35 54 -12 0 -19 3 -16 7
4 3 1 13 -6 21 -10 13 -9 14 3 7 11 -6 10 -3 -3 12 -9 11 -14 22 -11 25 3 4
-4 9 -15 13 -12 3 -19 10 -16 15 3 4 -2 10 -10 14 -8 3 -15 13 -15 21 0 9 -4
14 -8 11 -11 -7 -45 51 -37 64 3 6 -3 10 -14 10 -12 0 -20 3 -19 8 1 4 -5 21
-15 37 -9 17 -16 26 -17 22 0 -12 -50 49 -50 62 0 6 -9 11 -21 11 -11 0 -17 5
-14 10 3 6 1 10 -5 10 -6 0 -8 5 -5 10 3 6 -1 10 -10 10 -9 0 -13 5 -10 10 4
6 -12 29 -34 50 -23 22 -41 45 -41 51 0 6 -7 8 -16 5 -8 -3 -13 -2 -10 3 9 13
-21 34 -36 25 -7 -4 -10 -3 -5 1 4 5 -5 22 -20 39 -16 17 -21 26 -13 21 9 -6
7 -2 -4 8 -10 10 -26 15 -33 13 -8 -3 -11 -1 -8 4 3 6 2 10 -3 10 -6 0 -9 6
-8 14 0 8 -3 16 -9 17 -5 2 -18 13 -28 26 -10 13 -23 20 -29 17 -7 -4 -8 -2
-4 4 4 7 2 12 -4 12 -6 0 -8 5 -4 12 4 6 3 8 -3 5 -5 -4 -19 3 -31 13 -12 11
-26 20 -31 20 -6 0 -7 7 -4 17 4 9 2 14 -3 10 -6 -3 -18 5 -28 18 -10 14 -22
22 -27 19 -5 -3 -14 6 -20 20 -12 25 -43 43 -64 37 -5 -1 -7 0 -3 4 11 11 -34
52 -65 59 -15 4 -25 11 -22 16 3 5 -4 14 -15 20 -11 6 -20 8 -20 4 0 -4 -12 7
-27 23 -32 35 -86 73 -102 73 -7 0 -24 11 -38 24 -15 14 -30 23 -34 21 -4 -3
-10 2 -13 11 -3 8 -11 12 -16 9 -6 -4 -9 -1 -8 6 2 7 -3 14 -9 15 -7 1 -17 2
-21 3 -5 0 -18 10 -30 21 -12 12 -22 18 -22 15 0 -4 -19 8 -42 27 -23 18 -39
26 -34 18 6 -12 4 -11 -6 1 -7 9 -23 15 -35 14 -21 -1 -28 6 -24 28 1 7 -14
11 -37 8 -7 -1 -15 5 -18 13 -3 8 -14 13 -25 11 -11 -2 -17 0 -14 4 4 8 -7 16
-27 20 -5 1 -24 10 -44 21 -19 11 -40 17 -46 14 -7 -4 -8 -2 -4 4 4 7 1 13 -8
13 -33 3 -37 4 -46 19 -5 8 -10 11 -10 5 0 -5 -4 -4 -8 3 -5 7 -22 14 -39 15
-17 1 -29 5 -26 10 4 6 -20 11 -40 8 -5 -1 -6 3 -2 9 6 10 2 12 -32 13 -10 1
-21 5 -24 10 -3 4 -15 9 -27 10 -11 0 -18 5 -16 9 3 4 -2 9 -10 9 -9 1 -25 3
-36 4 -11 1 -27 3 -35 4 -8 0 -12 7 -9 14 4 12 -10 17 -63 20 -12 0 -19 5 -17
9 5 8 -5 11 -38 11 -10 0 -15 4 -11 10 4 6 -4 8 -21 5 -14 -3 -26 -2 -26 3 0
4 -11 6 -25 5 -13 -2 -23 0 -20 3 2 4 -9 12 -26 18 -22 9 -27 8 -22 0 4 -7 -1
-6 -10 2 -10 7 -41 14 -71 15 -34 1 -52 5 -49 12 2 6 -10 10 -31 9 -20 0 -38
5 -40 11 -3 8 -22 12 -50 10 -25 -1 -47 2 -48 6 -2 5 -19 11 -38 14 -19 3 -48
9 -65 13 -16 4 -49 7 -72 6 -23 -1 -40 2 -37 7 5 8 -32 11 -172 12 -66 1 -80
4 -76 15 4 10 1 13 -11 8 -9 -3 -19 -3 -21 2 -6 9 -461 10 -523 1z m-2443
-1134 c0 -2 -8 -10 -17 -17 -16 -13 -17 -12 -4 4 13 16 21 21 21 13z"/>
<path d="M7232 6993 c-13 -3 -19 -9 -16 -15 4 -7 2 -8 -4 -4 -6 4 -22 1 -34
-6 -13 -6 -28 -13 -33 -14 -6 -1 -32 -11 -57 -23 -26 -11 -51 -21 -56 -21 -5
0 -15 -6 -22 -14 -6 -8 -17 -13 -24 -10 -8 3 -16 -2 -20 -11 -3 -9 -10 -14
-15 -11 -13 8 -92 -29 -83 -39 4 -5 1 -5 -6 -1 -7 4 -18 3 -25 -2 -7 -5 -25
-12 -40 -16 -18 -4 -25 -11 -21 -19 4 -7 4 -9 -1 -5 -4 4 -14 3 -22 -3 -7 -6
-13 -8 -13 -5 0 4 -10 1 -22 -6 -13 -7 -27 -11 -31 -10 -4 1 -10 -5 -13 -13
-3 -8 -10 -12 -15 -9 -6 3 -17 0 -25 -7 -9 -7 -26 -15 -37 -16 -12 -2 -24 -8
-25 -13 -2 -6 -8 -8 -13 -4 -5 3 -12 -2 -15 -10 -3 -9 -10 -14 -14 -11 -12 7
-121 -51 -112 -59 3 -4 -2 -4 -12 0 -13 5 -17 4 -12 -4 5 -8 2 -10 -8 -6 -9 3
-16 1 -16 -6 0 -6 -5 -8 -10 -5 -6 3 -13 0 -16 -9 -3 -8 -12 -12 -20 -9 -8 3
-14 0 -14 -7 0 -6 -4 -9 -9 -5 -5 3 -16 -1 -24 -9 -8 -8 -17 -12 -21 -9 -3 4
-6 2 -6 -4 0 -5 -6 -10 -12 -10 -7 0 -37 -14 -66 -32 -29 -17 -57 -31 -62 -31
-6 0 -10 -5 -10 -12 0 -6 -3 -9 -6 -5 -9 8 -64 -21 -64 -34 0 -6 -4 -7 -10 -4
-14 8 -70 -26 -63 -38 3 -6 1 -7 -6 -3 -6 4 -24 -2 -40 -13 -16 -12 -33 -21
-37 -21 -4 0 -19 -10 -32 -22 -14 -13 -21 -16 -17 -8 6 11 3 10 -12 -2 -11
-10 -25 -18 -31 -18 -7 0 -12 -4 -12 -10 0 -5 -11 -12 -25 -16 -14 -3 -22 -11
-18 -17 4 -6 0 -8 -10 -4 -9 3 -26 -4 -41 -18 -15 -14 -30 -25 -34 -26 -22 -5
-31 -12 -25 -23 3 -6 3 -8 -2 -4 -9 9 -65 -19 -65 -32 0 -6 -3 -10 -7 -9 -16
2 -53 -14 -48 -20 2 -4 -13 -15 -33 -24 -20 -9 -52 -30 -69 -46 -18 -16 -33
-27 -33 -23 0 4 -7 -1 -14 -11 -8 -10 -18 -19 -23 -19 -10 -1 -54 -28 -71 -45
-7 -7 -17 -13 -22 -13 -5 0 -26 -17 -47 -37 -20 -21 -33 -31 -28 -23 8 15 -40
-23 -62 -49 -7 -8 -13 -11 -13 -6 0 4 -9 -2 -20 -15 -11 -13 -20 -20 -20 -16
0 4 -16 -9 -35 -28 -19 -20 -35 -33 -35 -31 0 6 -50 -36 -95 -79 -16 -16 -32
-30 -35 -30 -3 -1 -4 -4 -2 -8 1 -5 -2 -8 -7 -8 -5 0 -33 -22 -62 -50 -29 -27
-57 -50 -63 -50 -5 0 -7 -2 -4 -5 3 -3 -23 -34 -58 -70 -35 -35 -64 -69 -64
-75 0 -6 -4 -8 -10 -5 -6 3 -10 2 -10 -4 0 -5 -15 -24 -32 -42 -18 -18 -26
-29 -18 -25 8 4 3 -2 -12 -14 -16 -12 -28 -27 -28 -33 0 -7 -9 -18 -21 -25
-12 -7 -19 -15 -16 -18 2 -3 -9 -19 -24 -35 -16 -17 -29 -35 -29 -40 0 -6 -11
-22 -25 -37 -14 -15 -25 -30 -25 -35 0 -4 -11 -24 -25 -44 -13 -20 -22 -40
-20 -44 3 -4 -2 -9 -10 -13 -8 -3 -15 -15 -15 -26 0 -12 -4 -18 -10 -15 -5 3
-10 2 -10 -3 0 -5 -10 -31 -22 -58 -12 -27 -21 -52 -20 -56 1 -5 -3 -8 -9 -8
-6 0 -9 -7 -5 -15 3 -8 2 -15 -3 -15 -6 0 -32 -67 -32 -85 0 -2 -6 -20 -15
-40 -8 -19 -12 -35 -9 -35 2 0 0 -11 -5 -25 -13 -34 -22 -74 -23 -107 -1 -16
-4 -28 -7 -28 -11 0 -20 -309 -9 -315 4 -3 6 -14 4 -25 -3 -18 5 -25 20 -17 2
1 12 -8 20 -20 10 -14 21 -20 32 -16 11 4 14 3 9 -5 -4 -7 -1 -12 9 -12 9 0
14 -4 11 -9 -5 -7 27 -22 42 -20 2 0 13 -11 26 -25 12 -14 30 -26 39 -26 10 0
15 -4 12 -10 -3 -5 -1 -10 5 -10 6 0 25 -15 42 -32 18 -18 26 -24 18 -13 -7
11 2 3 22 -17 19 -21 38 -35 41 -31 4 3 7 -1 7 -10 0 -9 5 -17 11 -17 14 0 49
-39 49 -53 0 -6 3 -8 6 -5 6 7 44 -28 44 -40 0 -5 11 -14 23 -19 23 -11 25 -8
42 45 9 31 18 61 19 67 1 5 5 16 9 23 5 6 5 12 0 12 -4 0 -2 4 4 8 7 4 14 17
16 27 1 11 7 27 12 35 5 8 10 20 11 25 4 24 9 40 14 45 3 3 16 30 30 60 13 30
31 64 40 74 8 11 9 16 3 12 -7 -4 -13 -5 -13 -2 0 2 6 11 13 18 19 21 37 56
37 72 0 8 8 20 18 25 9 6 13 11 8 11 -5 0 -1 10 10 22 10 12 13 18 5 13 -8 -5
-3 7 12 27 15 19 24 38 20 41 -3 4 -1 7 5 7 7 0 12 5 12 11 0 6 9 24 21 40 11
16 18 29 14 29 -3 0 3 10 14 22 11 11 18 24 16 28 -3 5 2 11 11 14 8 3 13 10
10 15 -3 5 1 12 10 15 9 4 14 9 11 12 -3 3 2 14 11 25 9 11 17 25 17 32 1 7 7
11 14 9 8 -2 11 3 8 13 -4 8 -2 15 2 15 5 0 18 18 29 40 10 22 21 37 24 35 3
-3 11 7 19 23 8 15 19 32 24 38 6 6 17 22 25 34 8 12 21 28 28 36 6 7 12 16
12 21 0 4 18 28 40 52 22 24 37 48 34 53 -3 5 0 7 7 6 7 -2 13 2 14 9 0 7 9
19 20 27 11 9 17 16 13 16 -4 0 3 11 15 24 80 85 100 109 87 102 -8 -5 -4 2
10 16 46 44 105 111 91 103 -9 -5 -12 -4 -7 3 4 7 14 12 22 12 8 0 14 7 14 16
0 8 4 13 9 9 5 -3 12 3 16 14 3 11 13 22 21 25 8 3 12 10 9 16 -3 5 2 10 11
10 10 0 14 3 11 7 -4 3 5 15 20 25 16 10 25 18 21 18 -4 0 3 10 15 23 12 13
25 22 29 20 4 -2 9 6 13 17 3 11 13 20 21 20 8 0 13 4 10 9 -3 5 1 11 9 15 8
3 15 12 15 20 0 8 5 18 12 22 7 5 8 3 3 -7 -8 -12 -6 -12 8 0 9 7 17 19 17 27
0 7 5 16 12 20 7 5 8 3 3 -7 -8 -12 -6 -12 8 0 9 7 14 17 11 22 -3 5 -2 8 3 7
11 -3 103 86 103 100 0 6 5 14 12 18 7 5 8 3 3 -7 -8 -12 -6 -12 8 0 9 7 14
17 11 22 -3 5 -2 8 3 7 7 -3 30 15 99 78 13 12 20 25 16 29 -4 5 -2 5 5 1 7
-4 38 19 78 59 36 36 65 63 65 60 0 -4 14 9 31 27 18 18 28 26 24 18 -4 -8 13
6 39 32 25 26 46 44 46 40 0 -3 9 4 20 16 12 12 25 22 30 22 6 0 10 6 10 13 0
8 7 14 15 14 8 0 15 -6 15 -14 0 -7 -4 -13 -10 -13 -5 0 -9 -3 -8 -7 2 -5 -6
-18 -17 -31 -11 -12 -19 -26 -19 -30 1 -4 -7 -13 -17 -20 -11 -7 -19 -18 -19
-23 0 -6 -6 -17 -12 -24 -31 -34 -38 -45 -31 -45 4 0 -3 -7 -15 -16 -12 -8
-20 -19 -17 -24 3 -4 -2 -11 -11 -14 -9 -4 -14 -9 -11 -12 3 -4 -2 -14 -11
-23 -10 -9 -13 -14 -7 -11 6 3 2 -3 -8 -12 -11 -10 -17 -18 -14 -18 4 0 -5
-12 -18 -26 -14 -15 -22 -32 -18 -38 3 -6 3 -8 -2 -4 -8 8 -45 -33 -45 -50 0
-5 -9 -21 -21 -36 -11 -14 -17 -26 -12 -26 4 0 1 -6 -7 -13 -27 -22 -56 -61
-40 -53 8 4 4 -2 -10 -14 -14 -12 -18 -19 -10 -15 8 4 4 -2 -9 -13 -16 -13
-21 -24 -16 -33 5 -8 4 -11 0 -6 -10 8 -46 -43 -39 -55 3 -4 0 -8 -6 -8 -6 0
-8 -4 -5 -10 3 -5 -1 -10 -9 -10 -9 0 -16 -8 -16 -19 0 -11 -4 -21 -9 -23 -5
-1 -11 -10 -13 -18 -2 -8 -11 -21 -20 -28 -10 -7 -15 -19 -11 -29 4 -9 2 -14
-3 -10 -6 3 -16 -3 -23 -15 -10 -16 -10 -19 1 -12 7 4 1 -7 -14 -25 -26 -30
-30 -38 -27 -58 0 -3 -6 -10 -15 -15 -9 -5 -14 -13 -11 -19 4 -5 1 -9 -4 -9
-6 0 -11 -7 -11 -15 0 -8 -4 -15 -10 -15 -5 0 -10 -6 -10 -14 0 -7 -10 -26
-22 -42 -13 -16 -16 -25 -8 -20 8 4 7 1 -2 -7 -10 -8 -18 -19 -18 -24 0 -6 -7
-16 -15 -23 -8 -7 -12 -16 -9 -21 3 -5 0 -9 -5 -9 -6 0 -10 -3 -9 -7 1 -9 -13
-46 -21 -53 -12 -11 -42 -70 -35 -70 4 0 -2 -10 -14 -23 -12 -13 -19 -27 -15
-30 3 -4 0 -7 -7 -7 -7 0 -10 -3 -7 -6 4 -4 -3 -20 -15 -37 -12 -17 -16 -27
-7 -22 10 7 9 2 -4 -15 -21 -30 -41 -72 -39 -82 1 -5 -3 -8 -9 -8 -6 0 -8 -7
-5 -16 4 -10 2 -13 -6 -8 -7 5 -9 2 -5 -9 3 -9 -1 -18 -10 -21 -9 -4 -13 -13
-9 -21 3 -9 -1 -18 -9 -21 -8 -4 -13 -10 -10 -14 3 -5 1 -11 -5 -15 -6 -4 -8
-11 -5 -16 4 -5 1 -9 -4 -9 -6 0 -10 -3 -10 -7 1 -5 0 -11 -1 -15 -1 -5 -3
-11 -4 -15 -1 -5 -10 -26 -20 -48 -10 -22 -19 -44 -20 -50 -1 -5 -7 -19 -13
-30 -6 -11 -12 -23 -12 -27 -1 -4 -8 -22 -16 -40 -7 -18 -11 -36 -9 -40 3 -5
0 -8 -5 -8 -6 0 -11 -9 -11 -19 0 -11 -5 -23 -11 -26 -6 -4 -8 -12 -6 -19 3
-7 -5 -33 -17 -59 -13 -25 -18 -43 -12 -39 6 3 3 -6 -7 -21 -9 -15 -15 -27
-11 -27 4 0 1 -7 -6 -15 -6 -8 -9 -19 -6 -24 4 -5 1 -13 -5 -16 -5 -4 -8 -13
-5 -21 3 -7 1 -16 -5 -19 -5 -4 -7 -10 -4 -15 3 -5 1 -11 -4 -14 -5 -4 -8 -18
-5 -32 3 -18 1 -23 -7 -18 -9 5 -10 1 -7 -14 4 -12 2 -22 -2 -22 -5 0 -7 -8
-5 -17 1 -10 -1 -22 -5 -28 -7 -10 -8 -14 -13 -70 -1 -16 -6 -36 -11 -43 -4
-7 -10 -32 -12 -55 -9 -82 -14 -122 -19 -152 -8 -40 -12 -354 -5 -350 5 3 8
-40 10 -132 0 -12 5 -25 12 -29 7 -5 8 -3 3 6 -6 10 -4 11 6 4 17 -11 72 -15
209 -16 94 0 225 7 225 12 0 1 18 3 40 5 22 1 41 4 43 5 1 1 14 3 30 4 15 1
33 5 40 9 6 5 17 5 22 2 6 -3 16 -3 22 1 7 5 19 9 28 10 32 5 50 10 56 16 3 4
12 4 19 2 7 -3 16 0 20 5 3 6 10 9 15 6 5 -3 11 -1 15 4 3 6 12 8 19 5 7 -3
18 2 25 10 7 8 19 12 27 9 8 -3 14 1 14 8 0 7 3 9 7 6 3 -4 15 1 26 10 11 10
17 13 14 7 -7 -13 54 16 80 38 14 11 16 11 8 -2 -6 -11 -3 -10 12 3 11 9 27
17 37 17 9 0 19 7 22 15 4 8 9 13 13 10 4 -2 18 6 32 19 13 12 30 21 37 18 6
-2 15 3 18 12 3 9 10 13 15 10 5 -3 12 2 15 10 3 9 10 13 15 10 5 -3 9 2 9 11
0 9 4 14 9 10 6 -3 14 3 20 12 6 10 11 14 11 10 0 -4 6 -2 14 5 8 7 11 17 8
22 -3 5 0 6 6 2 6 -3 19 5 31 19 11 15 23 27 28 28 4 1 7 6 5 10 -1 5 2 6 7 2
6 -3 17 6 26 19 9 14 26 28 37 32 11 3 17 8 14 11 -2 3 9 18 25 34 16 16 26
29 22 29 -4 0 6 12 22 26 17 14 23 23 15 19 -8 -4 -3 3 13 15 15 12 27 28 27
36 0 8 6 17 14 20 8 3 20 19 26 35 7 16 16 27 20 24 7 -4 15 14 18 38 0 5 9
15 19 24 11 8 12 12 3 8 -8 -4 -6 2 6 12 21 18 39 51 36 66 -1 4 2 7 7 7 5 0
13 10 17 22 3 12 13 28 20 36 8 7 12 18 9 23 -4 5 -2 9 2 9 5 0 14 9 21 21 11
17 11 20 0 13 -10 -6 -11 -5 -1 8 7 8 10 18 6 21 -3 4 -2 7 4 7 6 0 13 8 15
17 8 32 11 38 24 51 7 7 11 19 8 27 -4 8 -2 15 4 15 5 0 13 12 18 28 10 35 9
32 23 67 7 17 14 35 15 40 5 19 17 50 27 69 8 14 8 16 -3 10 -10 -6 -10 -4 1
9 7 9 10 17 6 17 -4 0 -3 6 2 13 10 11 26 59 28 82 0 6 7 21 14 34 10 18 10
22 0 16 -8 -6 -10 -4 -3 6 8 14 12 27 19 64 2 11 4 22 6 25 1 3 3 10 4 15 2 6
4 12 5 15 6 16 21 90 23 113 1 9 4 17 7 17 3 0 7 10 8 23 2 31 10 82 12 82 1
0 4 16 6 35 4 34 9 78 19 143 20 141 25 189 41 422 8 111 8 711 0 860 -8 153
-15 245 -40 500 -4 41 -15 121 -22 165 -4 21 -8 52 -16 108 -1 6 -4 11 -7 11
-3 -1 -16 -4 -29 -6z"/>
<path d="M516 4568 c0 -29 2 -57 4 -63 5 -18 15 60 11 88 -6 47 -17 30 -15
-25z"/>
<path d="M1809 4466 c-7 -12 -5 -36 3 -36 6 0 8 -6 5 -14 -3 -8 -3 -17 1 -20
3 -4 7 -17 9 -29 2 -12 6 -29 10 -37 3 -8 7 -27 9 -42 1 -14 7 -35 13 -46 6
-11 8 -22 5 -24 -2 -3 1 -18 7 -34 12 -29 18 -54 21 -86 1 -10 6 -18 11 -18 4
0 5 -5 2 -10 -4 -6 -1 -17 5 -25 7 -8 9 -15 5 -15 -4 0 -2 -7 5 -15 7 -8 9
-15 5 -15 -4 0 -2 -6 4 -13 6 -8 8 -16 5 -19 -3 -4 2 -20 11 -37 8 -17 13 -31
9 -31 -4 0 -2 -6 4 -12 6 -7 10 -15 9 -18 -2 -7 23 -90 35 -115 5 -12 10 -27
12 -35 3 -14 6 -24 24 -70 3 -8 6 -17 6 -20 1 -3 5 -11 9 -17 5 -7 6 -13 2
-13 -3 0 1 -13 10 -30 9 -16 13 -30 10 -30 -3 0 2 -11 11 -25 9 -14 13 -25 9
-25 -4 0 -2 -7 5 -15 7 -8 9 -15 5 -15 -4 0 -2 -7 5 -15 7 -8 9 -15 6 -15 -4
0 0 -10 8 -22 9 -12 16 -30 16 -40 0 -10 4 -18 10 -18 5 0 9 -3 8 -7 -4 -14
26 -83 35 -83 4 0 6 -4 2 -9 -3 -5 6 -30 19 -55 13 -25 23 -46 20 -46 -2 0 5
-16 16 -35 11 -20 20 -42 20 -50 0 -8 5 -15 11 -15 5 0 8 -4 4 -9 -3 -5 -1
-12 5 -16 5 -3 10 -15 10 -26 0 -13 4 -18 12 -13 8 5 9 2 5 -9 -4 -10 0 -20 9
-25 9 -5 15 -11 13 -13 -5 -9 13 -49 22 -49 6 0 7 -4 4 -10 -3 -5 -1 -10 6
-10 7 0 9 -3 6 -7 -4 -3 1 -15 10 -26 13 -15 14 -18 3 -13 -8 4 -6 -1 6 -11
11 -10 19 -24 16 -31 -2 -6 1 -12 6 -12 5 0 17 -18 26 -40 9 -22 25 -49 36
-60 11 -11 21 -23 21 -27 4 -19 23 -53 30 -53 4 0 11 -10 15 -22 7 -22 15 -34
47 -69 9 -10 17 -26 17 -35 0 -8 4 -12 10 -9 6 3 7 -1 4 -9 -4 -10 -1 -16 9
-16 9 0 19 -9 22 -20 3 -11 11 -20 17 -20 6 0 9 -3 5 -6 -3 -3 2 -14 11 -24
10 -10 28 -33 42 -51 14 -17 35 -43 48 -57 12 -14 22 -29 22 -34 0 -5 4 -7 8
-4 5 3 15 -6 22 -19 7 -13 17 -22 22 -19 4 3 8 0 8 -6 0 -11 26 -38 110 -115
24 -22 40 -34 35 -26 -5 10 -4 12 3 7 7 -4 12 -14 12 -22 0 -8 5 -12 10 -9 6
3 10 1 10 -4 0 -6 6 -11 14 -11 8 0 17 -7 20 -16 3 -8 10 -13 15 -10 5 3 12
-1 15 -10 3 -8 10 -13 15 -10 5 3 12 -1 15 -10 3 -8 10 -12 16 -9 5 3 10 1 10
-5 0 -6 12 -16 28 -22 15 -7 43 -22 62 -34 39 -23 36 -22 68 -30 12 -4 22 -10
22 -15 0 -4 9 -6 20 -4 11 2 20 -1 20 -7 0 -6 3 -8 7 -5 3 4 11 3 17 -2 6 -6
24 -11 38 -13 15 -2 30 -7 34 -10 3 -4 12 -4 20 -1 8 3 14 0 14 -6 0 -6 10
-11 23 -11 12 0 51 -3 87 -6 102 -11 237 -6 320 11 19 4 41 8 48 8 6 0 12 4
12 8 0 4 8 6 18 4 9 -1 28 3 42 10 14 7 31 10 38 8 6 -3 12 1 12 8 0 7 3 9 7
6 3 -4 12 -2 20 4 7 6 13 8 13 4 0 -5 10 0 22 11 12 10 18 13 14 6 -7 -11 -4
-11 15 0 13 7 33 20 43 28 11 8 17 10 13 4 -3 -6 25 5 63 25 37 20 67 38 65
41 -2 3 5 6 15 7 24 2 69 34 70 49 0 6 -12 24 -27 39 -16 16 -22 25 -15 21 8
-5 -4 15 -25 44 -21 28 -42 59 -48 68 -12 18 -44 59 -63 78 -7 8 -11 14 -7 14
6 0 -6 16 -43 55 -13 14 -20 25 -16 25 4 0 -7 14 -24 30 -18 17 -28 30 -24 30
4 0 -2 7 -12 15 -11 8 -17 15 -13 15 3 0 -6 12 -20 27 -14 16 -37 44 -51 63
-14 19 -39 48 -56 64 -17 16 -25 25 -17 21 8 -5 -4 12 -27 36 -90 98 -102 111
-102 121 0 5 -4 6 -10 3 -5 -3 -10 0 -10 8 0 8 -13 25 -29 38 -16 13 -27 27
-25 31 3 4 0 8 -6 8 -6 0 -18 7 -26 15 -9 8 -13 15 -9 15 3 0 0 6 -7 14 -7 8
-16 12 -20 9 -5 -2 -8 0 -8 5 0 5 -18 28 -40 51 -22 23 -40 47 -40 52 0 6 -8
8 -17 5 -10 -4 -14 -4 -10 0 7 8 -143 160 -155 156 -4 -1 -7 1 -7 5 3 18 -1
36 -7 30 -3 -3 -16 4 -28 17 -16 17 -18 17 -6 2 14 -19 14 -20 -4 -6 -10 8
-22 25 -27 38 -5 13 -18 26 -29 29 -11 3 -17 9 -14 14 3 5 0 9 -6 9 -7 0 -26
15 -43 33 -16 17 -34 31 -39 29 -4 -1 -8 5 -8 14 0 8 -4 12 -10 9 -5 -3 -10 1
-10 9 0 9 -4 16 -10 16 -5 0 -31 21 -57 47 -26 26 -43 41 -38 34 5 -10 4 -12
-3 -7 -7 4 -12 14 -12 23 0 9 -3 14 -6 11 -3 -4 -22 9 -42 28 -20 19 -49 45
-64 59 -15 14 -30 25 -34 25 -4 0 -25 18 -45 40 -21 22 -41 40 -45 40 -3 0
-15 10 -25 22 -11 11 -19 18 -19 15 0 -3 -15 9 -33 26 -18 18 -46 41 -61 52
-15 11 -39 30 -52 43 -14 12 -29 22 -33 22 -4 0 -8 6 -8 14 0 15 18 17 28 3 3
-4 16 -9 27 -10 12 -1 22 -6 22 -11 0 -5 3 -6 7 -3 3 4 17 0 30 -8 13 -9 23
-13 23 -9 0 3 16 -4 35 -16 19 -12 35 -19 35 -15 0 3 7 0 15 -9 9 -8 22 -13
30 -10 8 4 15 2 15 -4 0 -9 40 -24 57 -21 3 0 10 -6 15 -15 5 -9 15 -16 22
-16 7 0 36 -11 64 -25 29 -14 54 -24 56 -23 2 2 14 -6 27 -17 13 -12 19 -14
14 -5 -6 12 -4 11 11 -2 10 -9 31 -20 47 -23 15 -4 27 -10 27 -14 0 -7 61 -34
73 -32 4 0 7 -4 7 -10 0 -5 5 -7 10 -4 6 3 10 2 10 -3 0 -9 37 -25 53 -23 4 1
7 -3 7 -8 0 -8 37 -24 53 -22 4 1 7 -4 7 -10 0 -5 5 -7 10 -4 6 3 10 1 10 -4
0 -6 6 -11 14 -11 7 0 26 -10 42 -22 16 -13 25 -16 20 -8 -4 8 0 6 8 -4 9 -11
16 -16 16 -12 0 4 13 -2 29 -13 15 -11 31 -18 35 -14 3 3 6 2 6 -4 0 -9 50
-37 59 -33 2 1 7 -3 10 -8 8 -12 74 -47 84 -44 4 1 7 -2 7 -8 0 -5 7 -10 15
-10 8 0 15 -5 15 -12 0 -6 3 -9 6 -5 4 3 12 1 20 -6 33 -30 44 -37 55 -37 6 0
34 -16 60 -35 27 -19 55 -36 62 -38 6 -1 18 -9 25 -17 12 -13 13 -13 6 0 -5
11 -2 10 12 -2 44 -41 88 -72 80 -58 -5 10 -2 9 6 -2 8 -9 21 -18 28 -20 8 -2
23 -12 33 -23 11 -12 16 -14 12 -5 -3 8 2 5 11 -7 9 -13 22 -23 29 -23 7 0 18
-7 25 -15 7 -8 16 -13 20 -10 4 3 11 -2 14 -11 3 -8 10 -13 15 -10 5 3 11 -3
14 -14 3 -12 14 -20 25 -20 11 0 22 -7 26 -15 3 -8 12 -15 21 -15 8 0 15 -4
15 -10 0 -5 7 -10 16 -10 9 0 12 -5 8 -12 -4 -6 -3 -8 4 -4 6 3 23 -6 38 -21
14 -16 23 -21 20 -13 -4 8 0 6 9 -5 9 -11 21 -19 26 -17 5 1 9 -4 9 -10 0 -7
12 -22 27 -32 14 -11 23 -13 18 -6 -4 7 11 -6 33 -28 23 -23 49 -42 58 -42 8
0 12 -4 9 -10 -3 -5 -2 -10 3 -10 6 0 31 -19 58 -42 26 -24 51 -42 56 -40 5 1
8 -1 5 -5 -2 -5 4 -16 15 -25 10 -10 18 -16 18 -13 0 2 19 -14 41 -35 23 -22
45 -37 49 -35 5 3 6 31 3 62 -2 32 -5 73 -5 91 -1 17 -4 32 -8 32 -3 0 -7 17
-8 38 -5 67 -6 72 -16 72 -5 0 -6 3 -3 7 4 3 1 13 -6 21 -10 13 -9 14 2 7 11
-6 12 -5 5 6 -9 14 -14 34 -16 57 -1 6 -5 12 -10 12 -5 0 -6 5 -3 10 3 6 3 16
-2 23 -4 6 -8 17 -10 22 -1 6 -4 20 -7 33 -3 12 -8 28 -13 35 -4 6 -8 15 -9
20 -1 4 -2 8 -4 10 -1 1 -3 11 -5 21 -2 10 -7 22 -12 25 -4 3 -10 15 -11 26
-2 11 -9 23 -15 27 -7 4 -8 8 -4 8 5 0 -2 15 -15 33 -13 17 -23 34 -22 37 2
13 -38 90 -46 90 -6 0 -10 9 -10 20 0 11 -7 23 -15 26 -8 4 -15 10 -15 15 0 6
-5 15 -10 22 -39 46 -50 61 -50 68 0 9 -45 62 -90 107 -14 14 -18 21 -10 17
13 -8 13 -6 1 8 -7 9 -17 14 -22 11 -5 -3 -9 -1 -9 5 0 13 -50 67 -51 55 0 -5
-4 1 -9 14 -5 12 -17 22 -26 22 -10 0 -15 3 -11 6 7 7 -124 122 -131 116 -2
-2 -12 8 -23 23 -12 14 -24 23 -28 21 -4 -3 -14 4 -21 15 -8 10 -20 19 -27 19
-7 0 -13 5 -13 11 0 5 -4 7 -10 4 -5 -3 -10 -1 -10 4 0 6 -6 11 -14 11 -8 0
-16 3 -18 8 -4 9 -65 52 -74 52 -4 0 -16 8 -27 18 -15 12 -18 13 -12 2 4 -8
-4 -4 -18 9 -15 14 -27 20 -27 15 0 -5 -4 -4 -8 1 -4 6 -20 17 -37 25 -16 8
-39 21 -49 30 -11 8 -16 10 -12 3 4 -7 -12 -1 -36 12 -23 13 -45 22 -50 19 -4
-3 -8 0 -8 7 0 7 -3 9 -6 6 -4 -4 -20 3 -37 15 -17 12 -27 16 -23 10 4 -7 -9
-3 -28 8 -20 11 -40 19 -44 18 -4 0 -14 2 -22 5 -38 16 -76 30 -85 32 -5 1
-13 3 -17 5 -5 1 -12 4 -18 5 -5 1 -11 3 -12 5 -3 1 -21 6 -50 13 -7 1 -19 6
-25 10 -7 5 -17 5 -23 2 -5 -3 -10 -2 -10 3 0 8 -6 10 -50 14 -11 1 -20 6 -20
11 0 4 -4 5 -10 2 -5 -3 -15 -3 -22 1 -7 4 -24 9 -38 11 -43 5 -55 8 -67 16
-7 5 -13 6 -13 3 0 -2 -25 2 -57 9 -31 7 -63 11 -71 7 -9 -3 -13 -1 -10 4 4 5
-6 10 -20 11 -26 1 -80 8 -147 19 -16 3 -46 7 -65 9 -19 2 -35 4 -35 5 0 2
-15 3 -155 15 -153 13 -211 15 -492 19 -159 2 -288 3 -289 2z"/>
</g>
</svg>
